<?xml version="1.0" encoding="UTF-8"?>
<svg width="308px" height="357px" viewBox="0 0 308 357" version="1.1" xmlns="http://www.w3.org/2000/svg" xmlns:xlink="http://www.w3.org/1999/xlink">
    <title>Group</title>
    <g id="Page-1" stroke="none" stroke-width="1" fill="none" fill-rule="evenodd">
        <g id="Group" transform="translate(0.508837, 0.946096)" fill-rule="nonzero">
            <path d="M48.1731631,155.567904 C37.7841631,160.454904 10.2871631,182.453904 4.99116314,188.971904 C-0.508836858,195.489904 -2.13783686,185.305904 3.56516314,168.399904 C8.04516314,154.752904 19.4531631,136.216904 38.5991631,120.329904 C49.8011631,111.163904 74.4481631,97.9249044 89.5201631,90.1839044 C92.5761631,88.5539044 132.091163,71.8519044 167.329163,63.5009044 C170.385163,62.6859044 163.663163,68.5929044 162.644163,71.8519044 C157.348163,87.3319044 51.6341631,153.733904 51.6341631,153.733904 L48.1731631,155.567904 Z" id="Path" fill="#000000"></path>
            <path d="M197.067163,342.347904 C198.900163,353.346904 197.271163,354.161904 185.865163,355.587904 C174.458163,357.013904 166.107163,352.735904 163.052163,349.884904 C159.996163,347.031904 159.386163,340.718904 162.441163,335.015904 C164.275163,331.348904 166.108163,330.126904 167.127163,325.645904 C168.145163,321.368904 168.960163,320.349904 169.774163,318.720904 C170.588163,317.293904 170.793163,315.867904 170.996163,305.887904 C171.200163,295.907904 170.996163,277.167904 172.015163,269.224904 C173.034163,261.077904 208.272163,272.890904 208.272163,272.890904 C208.272163,272.890904 199.920163,293.666904 197.680163,298.758904 C195.439163,303.851904 195.643163,313.627904 195.643163,315.664904 C195.643163,317.701904 194.829163,321.774904 194.217163,321.978904 C193.606163,322.181904 196.254163,327.477904 195.031163,330.533904 C194.216163,333.385904 196.864163,340.718904 197.067163,342.347904 Z" id="Path" fill="#000000"></path>
            <path d="M210.511163,30.9109044 C209.288163,23.1709044 210.511163,7.89290442 212.140163,5.44990442 C217.233163,-1.47609558 244.119163,-2.29009558 249.823163,5.85690442 C252.267163,9.52290442 252.063163,18.0779044 251.656163,23.5779044 C251.249163,29.0769044 249.823163,40.8909044 249.619163,44.7619044 C249.416163,47.6139044 219.881163,52.0939044 213.363163,44.3539044 C211.529163,42.3179044 210.511163,30.9109044 210.511163,30.9109044 Z" id="Path" fill="#000000"></path>
            <path d="M270.395163,322.589904 C282.820163,331.552904 292.393163,333.181904 298.707163,336.440904 C305.021163,339.700904 303.392163,346.014904 292.800163,347.847904 C284.245163,349.476904 270.802163,346.217904 261.840163,346.217904 C252.878163,346.217904 232.916163,347.236904 227.620163,343.570904 C221.510163,339.293904 224.157163,331.348904 224.157163,331.348904 C225.787163,326.868904 229.860163,316.886904 228.638163,308.739904 C227.416163,300.592904 225.786163,296.111904 222.731163,288.574904 C219.676163,281.038904 217.436163,262.503904 220.288163,261.484904 C223.140163,260.465904 222.324163,261.484904 225.991163,262.298904 C229.657163,263.112904 233.731163,264.335904 241.675163,264.335904 C249.619163,264.335904 258.377163,263.112904 261.433163,262.502904 C264.488163,261.891904 266.932163,261.279904 265.913163,267.594904 C264.895163,273.908904 261.840163,285.722904 261.636163,294.888904 C261.433163,304.054904 261.433163,314.646904 262.044163,316.479904 C262.654163,318.312904 267.136163,320.349904 270.395163,322.589904 Z" id="Path" fill="#000000"></path>
            <g transform="translate(4.991163, 3.005904)" id="Path">
                <g transform="translate(0.000000, 47.728657)" fill="#88CE02">
                    <path d="M221.815,0.545343217 C199.41,19.8963432 156.024,25.1913432 91.66,50.0413432 C75.161,56.3553432 31.165,75.2983432 20.573,95.0563432 C56.218,74.4843432 69.458,102.796343 72.309,131.923343 C74.956,159.217343 88.604,173.476343 123.638,172.660343 C159.691,171.846343 170.69,192.825343 180.67,217.472343 C200.02,123.164343 230.981,104.833343 250.941,88.7423432 C293.309,54.3183432 241.165,-6.38065678 221.815,0.545343217 Z"></path>
                    <path d="M221.815,0.545343217 C168.042,19.2843432 114.879,23.9693432 52.348,62.4663432 C37.479,71.6323432 6.111,92.4073432 -1.42108547e-14,132.127343 C22.812,106.869343 75.567,75.0953432 140.136,54.9303432 C172.726,44.7453432 196.558,38.0243432 225.481,26.8213432 C223.445,13.7843432 223.445,8.69234322 221.815,0.545343217 Z"></path>
                </g>
                <path d="M290.457,159.894 C290.457,159.894 286.587,173.134 278.847,177.412 C278.847,177.412 273.144,179.449 261.738,173.135 C258.479,171.302 256.035,164.988 256.238,162.95 C256.442,158.061 259.497,155.821 259.497,155.821 C259.497,155.821 262.757,150.321 266.626,150.525 C270.497,150.728 277.015,151.339 279.052,149.506 C280.884,147.469 290.865,153.172 290.457,159.894 Z" fill="#000000"></path>
                <path d="M207.353,31.775 C207.353,31.775 206.539,42.164 205.113,48.681 C204.909,49.904 198.799,50.514 194.317,52.348 C202.872,76.79 254.405,76.586 261.127,64.569 C257.868,62.329 251.35,58.866 248.295,57.644 C245.239,56.421 245.443,56.625 245.239,50.922 C245.036,45.218 244.628,34.627 244.22,31.775 C243.813,28.923 212.241,28.923 207.353,31.775 Z" fill="#000000"></path>
                <path d="M209.39,31.775 C209.39,31.775 209.39,37.682 208.779,43.385 C208.576,46.033 208.372,47.662 207.965,49.699 C207.761,50.922 214.89,55.809 216.927,66.605 C226.704,88.399 249.314,77.604 258.683,67.216 C255.424,64.975 250.128,61.92 244.018,59.476 C240.962,58.253 242.388,55.606 242.185,49.903 C241.981,44.2 241.166,35.848 240.759,32.793 C240.35,29.738 214.279,28.923 209.39,31.775 Z" fill="#EFEFEF"></path>
                <path d="M207.353,31.775 C207.353,31.775 207.149,35.442 206.539,39.719 C209.186,42.366 212.649,46.033 215.298,48.274 C217.131,49.904 221.611,49.7 225.686,49.7 C229.352,49.7 232.611,50.107 234.037,49.293 C237.297,47.663 241.981,43.59 244.629,40.534 C244.426,36.868 244.222,33.405 244.019,31.775 C243.813,28.923 212.241,28.923 207.353,31.775 Z" fill="#000000"></path>
                <path d="M225.889,47.255 C223.444,47.255 220.592,47.052 218.352,46.644 C217.333,46.441 216.315,45.83 215.5,45.422 C214.074,44.403 212.648,43.182 211.02,41.959 C207.76,39.515 207.557,38.089 207.557,37.479 C208.983,24.646 207.149,13.851 207.149,13.851 C207.149,13.851 205.723,8.351 213.463,6.925 C221.203,5.499 225.888,5.296 225.888,5.296 C225.888,5.296 230.777,5.296 238.313,6.925 C246.053,8.351 244.627,13.851 244.627,13.851 C244.627,13.851 242.794,24.646 244.22,37.479 C244.22,38.089 244.017,39.515 240.757,41.959 C237.905,43.996 235.665,46.236 233.425,46.644 C231.184,47.052 228.332,47.255 225.889,47.255 Z" fill="#000000"></path>
                <path d="M225.889,5.68434189e-14 C212.446,5.68434189e-14 209.797,3.666 205.927,7.74 C205.113,8.758 205.723,14.869 207.15,27.905 L208.983,27.905 C208.983,27.905 207.76,24.238 207.964,19.961 C208.168,15.684 208.983,15.888 208.371,14.869 C207.557,13.646 205.927,11.609 209.594,9.573 C213.26,7.536 218.963,11.202 225.889,11.406 C232.814,11.202 238.721,7.536 242.387,9.573 C246.053,11.609 244.424,13.646 243.61,14.869 C242.795,16.091 243.813,15.683 244.017,19.961 C244.22,24.238 242.998,27.905 242.998,27.905 L244.831,27.905 C246.053,14.869 246.868,9.166 246.257,8.147 C242.794,3.666 239.332,0.203 225.889,5.68434189e-14 Z" fill="#000000"></path>
                <path d="M290.457,160.505 C290.457,160.505 286.587,172.93 279.051,177.207 C277.421,176.393 277.625,175.171 276.199,173.337 C275.791,172.727 274.365,172.318 273.755,171.708 C273.144,171.097 273.348,170.078 272.329,169.264 C271.514,168.449 270.903,169.06 270.088,168.449 C269.274,167.635 269.069,166.616 268.459,166.006 C268.051,165.598 266.422,165.395 266.015,164.987 C264.996,163.968 256.035,162.135 256.442,160.098 C257.256,157.042 258.886,154.802 258.886,154.802 C258.886,154.802 262.756,149.099 266.625,149.302 C270.495,149.506 274.162,150.321 276.199,148.488 C278.44,146.45 291.069,153.987 290.457,160.505 Z" fill="#000000"></path>
                <path d="M263.978,70.476 C263.978,70.476 276.81,67.42 285.569,75.772 C294.328,84.327 293.716,94.918 291.069,101.436 C293.309,104.084 297.383,111.416 294.328,120.175 C307.771,131.581 301.864,149.099 289.847,160.709 C289.847,160.709 286.995,150.117 275.589,149.506 C275.996,145.433 264.997,142.173 270.089,131.581 C262.349,129.748 262.553,124.452 261.331,117.935 C260.312,111.416 263.978,70.476 263.978,70.476 Z" fill="#000000"></path>
                <path d="M259.293,76.179 C259.293,76.179 274.162,68.643 282.921,77.198 C291.679,85.753 289.234,95.122 286.587,101.64 C288.827,104.287 294.123,111.825 290.864,120.786 C290.253,122.823 285.772,122.823 282.512,128.119 C290.659,123.433 295.752,124.656 297.585,130.562 C300.437,139.728 294.122,150.727 288.623,156.838 C288.623,156.634 288.419,156.43 288.419,156.227 C287.605,159.283 286.586,165.189 280.476,171.707 C277.42,174.966 274.976,174.559 271.513,173.744 C267.44,172.725 266.014,170.891 260.311,167.837 C257.052,166.004 258.885,163.763 258.885,161.93 C258.885,161.523 259.292,160.911 259.904,160.097 C260.311,159.078 261.533,157.45 263.366,155.616 C263.366,155.616 266.014,151.95 269.885,152.153 C273.755,152.357 277.828,151.543 278.847,150.524 L278.847,150.524 C278.847,143.395 270.7,143.191 273.551,130.97 C273.755,130.359 274.774,129.34 278.032,128.933 C273.143,127.914 270.903,127.71 267.44,124.452 C264.996,122.212 263.163,119.36 262.551,115.694 C261.33,109.38 259.293,76.179 259.293,76.179 Z" fill="#EFEFEF"></path>
                <path d="M216.315,63.347 C215.093,61.717 208.779,53.57 196.761,50.311 C193.298,49.292 191.058,52.144 187.596,54.181 C186.577,53.57 182.096,51.533 179.652,52.958 C177.208,54.383 175.579,55.81 173.134,56.828 C171.911,56.217 168.653,56.217 166.005,57.235 C163.357,58.05 159.283,59.883 155.413,65.179 C152.969,73.938 198.594,67.419 198.594,67.419 L216.315,63.347 Z" fill="#000000"></path>
                <path d="M216.723,63.347 C210.204,61.106 211.223,53.57 196.761,52.348 C193.909,52.144 192.076,54.384 190.039,55.81 C191.058,56.829 192.076,58.458 192.687,60.087 C190.854,58.051 187.595,55.402 184.335,54.791 C181.28,54.181 179.243,56.421 175.984,58.051 C176.594,58.661 177.206,59.68 178.02,60.903 C175.168,59.07 173.132,58.459 169.262,59.884 C166.614,60.698 161.522,62.939 157.652,68.439 C155.208,77.198 198.797,67.42 198.797,67.42 L216.723,63.347 Z" fill="#88CE02"></path>
                <path d="M255.016,66.606 C255.016,66.606 255.016,64.365 254.812,62.329 C254.812,61.922 253.183,60.903 253.183,60.496 L252.776,60.088 C252.776,60.088 256.035,58.255 258.479,59.274 C261.126,60.088 262.552,63.551 262.552,63.551 C267.237,61.922 267.644,63.755 269.885,66.199 C274.774,65.18 275.384,67.013 278.44,71.495 C278.44,71.495 274.774,70.884 267.645,72.105 C260.719,73.123 255.016,66.402 255.016,66.606 Z" fill="#000000"></path>
                <path d="M254.201,65.587 C254.201,65.587 255.423,64.568 255.015,64.364 C257.255,63.142 260.311,61.717 261.737,65.587 C266.422,63.957 267.033,66.198 269.273,68.643 C274.976,65.995 275.383,69.253 275.791,70.679 C273.958,70.679 271.311,70.883 267.644,71.29 C260.719,72.309 253.997,65.383 254.201,65.587 Z" fill="#88CE02"></path>
                <path d="M184.948,60.495 C184.948,60.495 196.558,64.568 206.335,63.957 C216.112,63.143 232.814,62.328 241.776,67.624 C241.776,67.624 250.942,64.364 259.497,66.605 C268.053,68.845 283.736,83.511 279.052,98.991 C278.644,100.01 275.996,101.639 272.941,102.658 C272.941,102.658 274.571,109.583 271.719,115.286 C268.867,120.786 262.553,131.378 262.349,146.043 L262.349,146.043 C262.146,148.487 261.739,153.579 261.331,156.023 C245.443,155.413 221.001,149.505 196.966,149.913 C197.169,147.266 197.373,145.636 197.577,142.988 L198.187,142.988 C196.965,136.266 196.558,132.803 195.335,127.711 C187.595,122.823 179.447,117.12 172.523,106.324 C165.801,95.528 184.948,60.495 184.948,60.495 Z" fill="#000000"></path>
                <path d="M263.571,170.486 C263.571,170.486 276.2,215.705 261.331,234.648 C261.331,234.648 263.571,243.406 258.479,252.776 C257.664,256.849 256.645,260.516 256.035,264.589 C253.387,281.495 248.905,288.624 247.683,315.714 L235.461,315.511 C235.461,315.511 234.035,295.957 229.758,285.569 C227.315,279.663 217.74,271.718 218.149,263.775 C218.556,257.664 219.778,252.572 230.167,244.424 C230.981,232.611 219.167,221.407 221.001,177.411 L263.571,170.486 Z" fill="#000000"></path>
                <path d="M259.905,168.652 C263.164,189.428 270.7,220.185 257.053,235.257 C257.663,238.109 258.071,242.183 257.256,246.867 C256.849,249.311 256.034,251.959 255.016,254.81 C252.979,259.699 252.164,266.828 251.553,271.105 C248.905,288.011 248.905,288.827 247.683,315.917 L235.461,315.713 C235.461,315.713 234.035,296.159 229.758,285.772 C227.315,279.865 222.222,274.773 221.815,266.829 C221.408,260.719 225.685,248.498 235.87,248.905 C235.259,224.259 223.852,229.147 220.797,177.818 L259.905,168.652 Z" fill="#EFEFEF"></path>
                <path d="M184.948,60.495 C184.948,60.495 189.429,61.921 194.317,62.328 C199.206,62.735 204.502,62.328 209.186,62.124 C218.963,61.31 232.814,60.291 241.98,65.587 C241.98,65.587 247.072,63.957 252.572,64.364 C255.016,64.568 257.461,66.605 260.312,67.42 C269.274,69.66 277.829,84.529 273.958,97.973 C273.551,98.992 270.699,97.973 267.44,98.992 C268.05,101.844 268.459,108.362 265.199,115.287 C261.737,122.213 257.256,131.175 258.07,148.285 C236.683,147.266 227.11,145.841 205.926,144.822 C204.093,137.285 202.87,129.749 202.667,125.879 C205.519,124.453 207.147,123.232 209.389,120.787 C203.279,121.806 200.834,121.398 197.167,119.361 C193.501,117.324 186.983,110.806 183.724,106.529 C183.317,106.121 181.077,112.842 175.985,113.047 C174.151,110.399 181.891,102.862 180.465,100.011 C175.374,89.622 184.948,60.495 184.948,60.495 Z" fill="#EFEFEF"></path>
                <path d="M261.533,151.746 C261.533,151.746 261.94,159.079 261.94,160.912 C261.94,162.949 263.57,169.059 263.773,171.911 C261.533,175.781 251.756,184.54 234.035,187.799 C216.518,191.465 193.298,163.968 193.298,163.968 C193.909,161.32 195.946,153.579 197.372,149.506 C197.576,149.099 197.983,148.08 197.983,147.673 C199.817,145.025 261.533,151.746 261.533,151.746 Z" fill="#000000"></path>
                <path d="M257.053,152.358 C257.053,157.45 257.867,161.117 258.479,164.376 C259.497,170.283 261.126,174.153 261.126,178.023 C261.126,189.836 245.646,187.799 232.609,188.207 C215.092,191.874 200.223,164.376 200.223,164.376 C201.445,159.691 202.26,154.396 204.093,149.914 L204.093,149.914 C204.296,147.47 204.704,144.415 204.907,142.989 C229.757,142.989 247.274,144.415 257.459,145.432 C257.867,147.673 257.46,151.543 257.053,152.358 L257.053,152.358 Z" fill="#EFEFEF"></path>
                <path d="M237.498,178.633 C237.498,178.633 226.703,154.598 194.316,161.728 C186.577,183.522 176.188,208.576 182.91,235.666 C176.188,244.832 168.448,249.925 168.448,266.83 C168.448,283.736 169.263,286.588 169.263,286.588 L193.094,287.811 C193.094,287.811 200.834,277.831 203.889,267.035 C204.704,263.979 205.519,258.48 204.908,252.166 C205.722,250.944 209.185,248.093 209.593,242.593 C209.593,242.593 221.203,236.483 227.925,221.614 C234.24,208.168 232.61,196.558 237.498,178.633 Z" fill="#000000"></path>
                <path d="M237.498,178.633 C236.888,176.393 228.74,154.395 198.594,160.912 C180.874,208.168 187.392,227.722 190.039,236.276 C178.021,251.552 172.522,254.811 174.967,285.772 L190.855,285.772 C198.187,274.162 199.817,269.884 200.224,254.608 C200.224,253.997 197.984,255.83 196.354,257.867 C197.577,251.553 201.039,250.331 203.687,246.461 C204.909,244.831 205.927,242.387 205.927,239.128 C220.185,229.555 225.481,217.537 228.536,205.112 C230.981,196.558 233.832,182.503 237.498,178.633 Z" fill="#EFEFEF"></path>
                <path d="M187.188,145.84 C187.188,145.84 192.688,146.043 197.577,147.673 C202.262,149.302 202.262,150.32 204.095,152.358 C205.928,154.396 210.409,157.45 209.595,160.505 C209.187,162.135 208.169,162.542 206.743,163.968 C206.132,164.579 201.65,169.467 200.632,170.078 C200.021,170.485 199.206,171.097 198.595,171.504 C197.985,171.911 196.152,173.134 195.54,173.541 C193.503,174.56 192.077,175.171 189.837,174.967 C189.837,174.967 184.745,174.763 181.485,171.301 C181.485,171.301 181.078,169.671 181.893,168.857 C181.893,168.857 177.615,165.19 176.393,162.746 C175.17,160.303 175.17,156.84 175.986,155.007 C176.393,153.172 184.336,148.08 187.188,145.84 Z" fill="#000000"></path>
                <path d="M192.281,344.027 L191.67,349.12 C191.67,349.12 189.837,351.36 176.19,351.157 C162.339,350.953 158.673,346.676 157.451,344.435 L156.637,339.139 C156.637,339.139 159.285,335.269 159.896,335.269 C164.377,335.676 179.654,341.787 190.246,343.416 C191.262,343.416 191.465,343.823 192.281,344.027 Z" fill="#000000"></path>
                <path d="M221.815,333.639 C221.815,335.879 221.611,335.879 221.611,338.12 C224.055,339.953 230.167,340.972 241.776,340.767 C258.682,340.36 274.366,345.86 293.512,342.6 L293.716,338.934 L291.883,338.731 L224.055,333.231 L221.815,333.639 Z" fill="#000000"></path>
                <path d="M236.684,340.768 C238.314,340.768 239.943,340.768 241.776,340.768 C252.776,340.361 263.164,342.805 274.366,343.416 C280.273,343.212 287.606,341.786 286.995,337.509 L229.148,332.62 C225.685,336.49 228.332,339.749 236.684,340.768 Z" fill="#000000"></path>
                <path d="M170.282,255.016 C172.115,256.238 184.54,263.571 204.705,262.552 C204.297,266.422 204.501,273.959 195.539,287.198 C191.058,293.716 187.187,305.123 186.373,319.585 C186.577,322.844 188.41,325.695 185.966,329.973 C186.78,332.62 190.039,337.916 191.669,341.175 C193.298,344.435 194.113,348.101 183.317,348.305 C172.318,348.508 154.597,347.286 157.042,338.732 C158.265,334.251 161.727,329.566 162.135,327.732 C162.542,325.899 162.542,320.4 166.004,316.733 C169.06,306.549 168.041,296.772 167.431,287.606 C166.412,278.032 166.208,262.756 170.282,255.016 Z" fill="#000000"></path>
                <path d="M189.225,89.011 C203.687,69.66 191.465,54.181 168.246,58.865 C158.876,60.698 149.507,67.217 148.895,79.03 C145.84,79.437 138.915,79.844 135.452,92.473 C132.805,102.25 131.379,104.083 126.693,108.971 C123.638,112.434 126.897,119.563 129.137,124.656 C136.674,142.173 159.894,143.802 175.578,157.042 C180.874,155.616 186.373,149.71 188.003,145.84 C174.763,130.155 177.614,124.045 172.318,115.898 C178.022,113.86 191.058,105.917 189.225,89.011 Z" fill="#000000"></path>
                <path d="M186.373,87.789 C187.187,86.566 188.613,83.919 189.225,82.9 C189.429,82.696 191.669,86.566 191.873,86.363 C197.372,77.4 198.798,64.364 192.483,63.142 C191.057,62.938 188.41,62.328 186.169,61.512 C182.096,60.086 178.43,60.086 171.911,61.309 C162.949,62.938 153.987,69.456 153.987,78.826 C153.987,79.437 160.3,81.27 162.134,88.807 C159.078,84.529 153.782,79.844 147.468,83.918 C140.746,88.195 144.209,97.972 135.247,108.156 C132.191,111.619 132.599,115.693 135.857,123.84 C141.153,136.673 166.207,143.598 179.854,155.819 C183.113,154.393 185.353,151.134 186.983,148.69 C177.817,139.117 174.15,130.154 171.503,123.636 C168.244,116.1 164.577,111.823 157.448,106.118 C161.115,107.544 163.967,108.97 165.595,110.192 C167.428,111.414 170.076,111.618 172.521,110.803 C181.281,107.75 185.966,95.528 186.373,87.789 Z" fill="#EFEFEF"></path>
                <path d="M274.977,91.048 C274.366,98.788 268.663,94.918 265.608,93.492 C259.497,90.844 253.386,89.011 246.257,89.011 C239.128,89.011 229.962,89.622 222.019,91.659 C211.02,94.714 207.76,94.511 202.872,92.066 C197.984,89.418 189.43,82.9 189.43,82.9 C189.43,82.9 189.226,84.937 191.263,87.585 C193.91,90.844 199.818,94.918 207.761,97.565 C211.631,98.788 214.687,97.972 218.15,97.158 C236.278,92.677 255.424,91.862 271.515,101.639 C272.33,102.046 275.182,100.824 276.404,98.991 C278.032,96.344 274.977,91.048 274.977,91.048 Z" fill="#000000"></path>
                <path d="M182.3,168.652 C183.929,169.671 185.966,170.282 188.206,172.115 C188.206,172.115 186.373,172.115 185.559,171.301 C184.54,170.69 182.503,168.857 182.3,168.652 L182.3,168.652 Z" fill="#001423"></path>
                <path d="M241.165,7.129 C240.554,5.296 236.072,2.036 225.685,2.036 C214.482,2.036 211.223,5.499 211.02,7.332 C211.02,7.943 210.205,14.462 210.001,17.109 C210.001,17.109 210.001,20.368 210.204,25.256 C210.408,28.515 211.223,30.348 211.63,34.626 C212.037,39.106 213.26,41.958 215.5,45.625 C216.519,46.235 217.333,46.847 218.352,47.051 C222.426,47.865 229.555,48.069 233.425,47.051 C235.665,46.44 238.517,42.57 239.128,39.107 C239.942,34.83 240.757,31.774 240.961,29.127 C241.368,26.48 241.572,20.572 241.775,18.942 C242.387,14.462 241.368,7.536 241.165,7.129 Z" fill="#EFEFEF"></path>
                <path d="M219.778,258.886 C219.778,258.886 230.574,263.571 257.257,259.497 C257.257,259.497 249.721,297.383 253.184,316.325 C253.184,316.325 256.646,321.214 282.311,330.583 C282.311,330.583 293.717,333.435 293.31,339.139 C293.31,339.139 293.717,340.361 279.867,339.953 C266.017,339.545 252.98,337.101 243.814,337.101 C234.648,337.101 224.871,337.508 223.242,334.861 C221.409,332.417 223.649,326.102 226.297,322.435 C229.15,318.566 228.334,315.713 228.131,308.789 C227.518,290.661 213.667,271.922 219.778,258.886 Z" fill="#000000"></path>
                <path d="M217.537,262.349 C216.111,264.386 217.74,272.125 219.777,279.662 C221.814,287.198 226.296,291.68 227.314,304.104 C228.332,316.325 228.536,317.955 225.073,325.083 C221.61,332.211 220.592,338.73 232.609,338.934 C244.626,339.138 251.145,338.73 263.366,340.564 C275.588,342.397 279.865,343.008 286.587,341.99 C293.309,340.972 294.734,338.73 291.883,336.694 C289.031,334.657 277.217,332.417 272.125,328.342 C267.236,324.676 253.386,318.565 253.183,316.936 C252.572,311.436 252.368,291.475 253.386,284.957 C254.405,278.438 255.83,269.069 256.238,266.625 C256.646,264.181 258.682,261.736 255.219,262.551 C251.757,263.365 238.721,265.199 228.944,264.588 C219.167,263.978 218.149,261.737 217.537,262.349 Z" fill="#88CE02"></path>
                <path d="M224.463,325.288 C227.925,326.917 233.018,328.14 236.888,328.14 C236.888,328.14 235.461,334.862 237.702,338.935 C239.942,343.009 221.407,340.565 221.407,340.565 L220.593,326.103 L224.463,325.288 Z" fill="#000000" opacity="0.3"></path>
                <path d="M278.44,342.805 C281.699,341.786 283.94,338.12 281.292,334.658 C278.44,331.195 275.996,330.584 279.662,330.381 C283.329,330.177 296.772,338.324 296.772,338.324 L289.846,344.638 L278.44,342.805 Z" fill="#000000" opacity="0.3"></path>
                <path d="M216.926,270.292 C221.611,271.922 228.74,272.329 234.851,272.125 C240.961,271.922 250.127,271.106 256.035,269.07 C261.941,267.033 259.497,271.31 259.497,271.31 L256.238,274.366 C256.238,274.366 248.498,277.421 235.87,277.218 C221.001,277.014 216.519,275.385 216.519,275.385 L216.926,270.292 Z" fill="#000000" opacity="0.3"></path>
                <path d="M217.333,280.477 C222.019,282.107 229.147,282.514 235.258,282.31 C241.368,282.107 249.516,282.107 255.423,279.866 C257.867,279.052 256.442,282.514 256.442,282.514 L255.423,284.347 C255.423,284.347 247.479,287.199 235.054,286.994 C220.185,286.791 217.537,285.568 217.537,285.568 L217.333,280.477 Z" fill="#000000" opacity="0.3"></path>
                <path d="M219.778,258.886 C219.778,258.886 237.499,265.2 257.461,260.923 C257.461,260.923 249.721,297.383 253.184,316.122 C253.184,316.122 256.646,321.01 282.311,330.38 C282.311,330.38 293.717,333.232 293.31,338.935 C293.31,338.935 293.717,340.158 279.867,339.749 C266.016,339.342 252.98,336.897 243.814,336.897 C234.648,336.897 224.871,337.305 223.242,334.657 C221.409,332.213 223.649,325.898 226.297,322.232 C229.15,318.362 228.334,315.51 228.131,308.585 C227.518,290.661 213.667,271.922 219.778,258.886 Z" fill-opacity="0" fill="#000000"></path>
                <path d="M219.778,258.886 C219.778,258.886 237.499,264.996 257.461,260.719 C257.461,260.719 249.721,297.383 253.184,316.122 C253.184,316.122 256.646,321.01 282.311,330.38 C282.311,330.38 293.717,333.232 293.31,338.935 C293.31,338.935 293.717,340.158 279.867,339.749 C266.016,339.342 252.776,335.472 243.814,336.897 C234.241,338.527 224.871,337.916 223.242,334.657 C221.816,332.01 223.649,325.898 226.297,322.232 C229.15,318.362 228.334,315.51 228.131,308.585 C227.518,290.661 213.667,271.922 219.778,258.886 Z" fill-opacity="0" fill="#000000"></path>
                <path d="M203.89,137.693 C203.89,139.119 219.778,147.062 228.536,148.692 C237.295,150.321 255.627,148.692 258.478,148.081 L258.07,150.933 C258.07,150.933 236.276,154.192 219.574,149.711 C202.871,145.23 204.705,144.211 204.705,144.211 L203.89,137.693 Z" fill="#000000"></path>
                <g transform="translate(159.556538, 257.256000)" fill="#EFEFEF">
                    <path d="M10.3174621,54.181 C12.7614621,55.404 21.5204621,57.644 27.2234621,56.422 C28.0374621,56.218 27.2234621,42.367 29.4644621,36.053 C32.7234621,27.294 38.0194621,20.165 40.4624621,4.686 C31.9074621,3.871 22.1314621,1.63 17.0384621,0 C10.5214621,19.962 12.7624621,37.071 10.3174621,54.181 Z"></path>
                    <path d="M23.9654621,67.014 C25.3914621,67.421 26.4094621,69.05 26.8174621,68.033 C27.6314621,66.199 25.3914621,62.737 25.1874621,60.293 C25.1874621,60.089 25.1874621,60.293 25.1874621,60.089 C23.3544621,58.46 10.9294621,58.256 11.7444621,59.07 C10.3184621,61.718 8.07846213,61.311 7.26446213,66.607 C6.85746213,69.254 10.1164621,67.014 13.1704621,66.81 C7.67146213,70.476 1.35746213,75.162 0.338462135,79.235 C-0.883537865,84.938 1.15346213,86.568 7.26446213,89.624 C12.5604621,90.846 18.8744621,91.05 23.7624621,90.846 C29.2624621,89.827 30.2814621,87.18 28.6514621,83.513 C26.2054621,78.013 24.5764621,70.884 23.9654621,67.014 Z"></path>
                </g>
                <path d="M185.762,59.68 C192.484,63.55 201.854,62.532 205.316,62.328 C206.131,62.328 214.279,60.902 214.686,61.105 C215.5,61.309 215.5,61.92 215.5,61.92 C215.5,61.92 212.445,63.549 205.52,63.956 C199.002,64.363 191.262,63.956 186.985,61.92 C181.892,59.68 185.762,59.68 185.762,59.68 Z" fill="#000000"></path>
                <path d="M255.016,63.55 C256.238,64.364 264.182,67.42 267.645,71.086 C270.7,74.346 269.071,74.142 268.459,73.327 C267.645,72.308 261.33,68.031 258.886,67.013 C256.442,65.995 253.386,64.161 253.386,63.754 C253.386,63.347 255.016,63.55 255.016,63.55 Z" fill="#000000"></path>
                <path d="M184.743,148.08 C190.65,147.673 196.761,149.099 200.631,153.172 C202.668,155.209 205.927,157.449 205.52,159.486 C205.52,160.097 204.297,161.727 203.28,162.949 C202.669,163.763 200.836,165.596 200.224,166.208 C199.41,166.819 196.558,169.06 195.947,169.467 C195.336,169.875 194.521,170.894 193.91,171.097 C191.874,172.116 189.633,171.301 187.596,170.283 C185.56,169.264 188.004,169.06 185.763,167.431 C180.264,163.561 177.208,160.912 179.449,153.376 C179.652,151.95 181.892,150.32 184.743,148.08 Z" fill="#EFEFEF"></path>
            </g>
            <path d="M137.795163,104.441904 C119.463163,111.774904 72.8181631,134.995904 59.5791631,142.124904 L59.5791631,142.124904 C70.5781631,149.049904 75.6701631,165.751904 77.3001631,182.657904 C77.5031631,184.287904 77.7071631,185.713904 77.9111631,187.342904 C78.1141631,188.768904 78.3181631,189.786904 78.5211631,190.398904 C78.5211631,190.602904 78.5211631,191.009904 78.7251631,191.212904 C90.7431631,158.419904 133.720163,123.792904 135.350163,121.144904 C136.164163,119.922904 134.331163,114.626904 137.183163,109.535904 C140.850163,103.015904 147.980163,100.163904 137.795163,104.441904 Z" id="Path" fill="#000000" opacity="0.4"></path>
            <path d="M181.384163,258.225904 C190.753163,239.486904 190.957163,221.561904 190.753163,200.581904 C190.753163,191.822904 197.067163,179.397904 193.809163,182.860904 C181.587163,196.506904 150.831163,222.172904 128.629163,223.597904 C159.793163,222.579904 172.014163,238.263904 181.384163,258.225904 Z" id="Path" fill="#000000" opacity="0.4"></path>
            <path d="M41.6541631,159.436904 C53.2641631,151.085904 113.352163,119.107904 127.814163,114.625904 C142.275163,109.940904 137.794163,104.440904 137.794163,104.440904 C137.794163,104.440904 79.1321631,129.697904 44.0981631,151.492904" id="Path" fill="#000000"></path>
            <path d="M212.751163,100.571904 C208.066163,98.7389044 204.400163,104.238904 205.622163,109.534904 C206.845163,114.830904 217.844163,120.736904 217.232163,140.087904 C216.825163,155.975904 213.362163,162.492904 213.362163,162.492904 L205.622163,152.716904 C205.622163,152.716904 204.400163,130.717904 201.752163,127.458904 C199.105163,124.199904 190.753163,118.292904 187.494163,115.237904 C184.235163,112.181904 191.160163,108.108904 190.753163,102.404904 C190.346163,96.9059044 194.216163,85.9069044 194.216163,85.9069044 L212.751163,100.571904 Z" id="Path" fill="#000000" opacity="0.4"></path>
            <path d="M241.064163,187.341904 C240.657163,202.617904 244.120163,225.227904 245.545163,236.023904 C246.971163,246.818904 248.804163,247.633904 245.545163,252.522904 C242.286163,257.207904 238.009163,264.947904 238.009163,264.947904 L223.954163,263.724904 C223.954163,263.724904 235.157163,249.466904 235.767163,246.818904 C236.378163,244.171904 230.064163,224.006904 230.064163,224.006904 L241.064163,187.341904 Z" id="Path" fill="#000000" opacity="0.4"></path>
            <path d="M213.974163,44.7619044 C216.826163,51.0749044 220.288163,53.9269044 225.787163,55.7609044 C229.046163,56.9829044 241.878163,58.6129044 246.971163,52.9089044 C249.211163,50.2609044 247.785163,43.1319044 247.785163,43.1319044 L236.175163,52.5009044 L220.491163,49.6499044 L218.658163,44.9649044 L213.974163,44.7619044 Z" id="Path" fill="#000000" opacity="0.4"></path>
            <path d="M215.195163,58.8159044 C220.491163,62.2789044 233.731163,65.5379044 237.397163,66.1489044 C241.063163,66.9629044 246.970163,62.2789044 249.822163,61.0569044 C252.878163,59.6309044 258.174163,58.8159044 264.284163,64.3159044 C264.895163,64.9269044 262.858163,67.5749044 262.858163,67.5749044 C262.654163,67.3709044 261.432163,67.3709044 259.802163,66.5559044 C258.173163,65.7419044 256.747163,65.1299044 254.303163,65.3339044 C244.118163,66.5559044 242.489163,70.0189044 233.527163,67.9809044 C224.565163,65.9429044 222.324163,64.3149044 213.566163,64.7219044" id="Path" stroke="#000000" stroke-width="1.586" fill="#88CE02" stroke-linejoin="round"></path>
            <path d="M213.362163,59.4269044 C220.084163,62.2789044 233.120163,65.3339044 236.786163,66.1489044 C240.452163,66.9639044 246.359163,63.2969044 249.211163,61.4639044 C254.304163,58.2049044 260.821163,60.8529044 263.877163,64.3159044 C265.913163,66.5559044 266.729163,67.9819044 266.729163,68.5929044 C266.729163,69.4069044 264.285163,68.5929044 264.285163,68.5929044 C262.859163,67.9819044 261.229163,67.7789044 260.008163,66.9629044 C258.378163,66.1489044 256.748163,64.9269044 254.305163,65.1299044 C244.120163,66.3529044 242.083163,69.8149044 233.325163,67.7779044 C224.567163,65.7409044 222.326163,63.9079044 212.957163,64.5179044" id="Path" fill="#88CE02"></path>
            <path d="M181.791163,249.669904 C181.384163,249.262904 182.198163,248.855904 181.791163,248.855904 C179.144163,248.855904 175.477163,246.818904 173.439163,243.966904 C164.681163,231.338904 151.848163,222.987904 128.628163,223.598904 C93.7971631,224.412904 79.9461631,210.155904 77.2991631,182.861904 C75.8731631,167.992904 71.7991631,153.530904 63.4481631,145.382904 L58.5591631,148.438904 C67.9281631,156.585904 70.9841631,169.825904 73.0211631,187.953904 C76.2801631,215.247904 98.2781631,227.876904 123.943163,228.283904 C150.626163,228.690904 160.199163,234.190904 170.179163,247.634904 C173.438163,251.911904 177.105163,253.337904 179.956163,253.948904 L181.791163,249.669904 Z" id="Path" fill="#000000"></path>
            <path d="M276.302163,118.699904 C276.913163,121.754904 278.542163,127.661904 281.801163,130.512904 C283.228163,131.938904 283.431163,132.345904 282.209163,132.345904 C280.986163,132.345904 272.024163,131.938904 272.024163,131.938904 L269.580163,127.661904 L276.302163,118.699904 Z" id="Path" fill="#000000" opacity="0.4"></path>
        </g>
    </g>
</svg>